<svg width="486.7500122070312px" height="121.60000610351562px" xmlns="http://www.w3.org/2000/svg" viewBox="6.624993896484398 14.199996948242188 486.7500122070312 121.60000610351562" style="background: rgba(0, 0, 0, 0);" preserveAspectRatio="xMidYMid"><defs><linearGradient id="editing-rainbow-gradient" x1="0" x2="1" y1="0.5" y2="0.5" gradientUnits="objectBoundingBox"><stop offset="0.00" stop-color="#f00"></stop><stop offset="0.17" stop-color="#f90"></stop><stop offset="0.34" stop-color="#ff4"></stop><stop offset="0.51" stop-color="#9f0"></stop><stop offset="0.68" stop-color="#09f"></stop><stop offset="0.85" stop-color="#00f"></stop><stop offset="1.00" stop-color="#90f"></stop></linearGradient><filter id="editing-rainbow" x="-100%" y="-100%" width="300%" height="300%"><feMorphology operator="dilate" radius="1,2" in="SourceGraphic" result="dilate"></feMorphology><feColorMatrix in="dilate" result="color" type="matrix" values="0.7 0 0 0 0  0 0.7 0 0 0  0 0 0.7 0 0  0 0 0 1 0"></feColorMatrix><feOffset dy="2" result="offset"></feOffset><feGaussianBlur stdDeviation="3"></feGaussianBlur><feOffset dy="3"></feOffset><feColorMatrix result="blur" type="matrix" values="0.7 0 0 0 0  0 0.7 0 0 0  0 0 0.7 0 0  0 0 0 1 0"></feColorMatrix><feMerge><feMergeNode in="blur"></feMergeNode><feMergeNode in="offset"></feMergeNode><feMergeNode in="SourceGraphic"></feMergeNode></feMerge></filter></defs><g filter="url(#editing-rainbow)"><g transform="translate(80.80117607116699, 104.46999740600586)"><path d="M29.18 1.28L29.18 1.28L29.18 1.28Q20.99 1.28 20.22-10.37L20.22-10.37L9.22-10.37L9.22-10.37Q7.94-7.42 7.04-4.86L7.04-4.86L5.38 0L-3.58 0L16.58-42.24L30.34-42.24L33.02-11.14L33.02-11.14Q33.66-4.42 36.22-2.43L36.22-2.43L36.22-2.43Q34.37 1.28 29.18 1.28ZM14.72-23.17L11.20-15.04L20.03-15.04L19.26-31.49L19.26-33.22L14.72-23.17ZM59.97-17.98L59.97-17.98L59.97-17.98Q62.27-22.08 62.27-26.24L62.27-26.24L62.27-26.24Q62.27-28.99 60.29-28.99L60.29-28.99L60.29-28.99Q58.75-28.99 57.15-26.37L57.15-26.37L57.15-26.37Q55.49-23.74 54.98-20.35L54.98-20.35L51.65 0L38.40 1.28L44.93-32.64L55.49-33.92L54.34-27.46L54.34-27.46Q57.47-33.92 64.51-33.92L64.51-33.92L64.51-33.92Q68.22-33.92 70.24-32L70.24-32L70.24-32Q72.26-30.08 72.26-26.14L72.26-26.14L72.26-26.14Q72.26-22.21 69.66-19.71L69.66-19.71L69.66-19.71Q67.07-17.22 62.66-17.22L62.66-17.22L62.66-17.22Q60.74-17.22 59.97-17.98ZM74.30-6.40L74.30-6.40L74.30-6.40Q74.30-8.13 75.20-12.48L75.20-12.48L78.59-29.76L74.82-29.76L75.07-31.68L75.07-31.68Q82.75-33.98 90.18-39.62L90.18-39.62L93.25-39.62L91.71-32.64L96.70-32.64L96.13-29.76L91.20-29.76L87.94-12.48L87.94-12.48Q87.10-8.51 87.10-7.17L87.10-7.17L87.10-7.17Q87.10-4.10 89.79-3.46L89.79-3.46L89.79-3.46Q89.15-1.28 86.85 0L86.85 0L86.85 0Q84.54 1.28 81.28 1.28L81.28 1.28L81.28 1.28Q78.02 1.28 76.16-0.77L76.16-0.77L76.16-0.77Q74.30-2.82 74.30-6.40ZM135.49-20.61L148.42-21.76L148.42-21.76Q143.81-11.65 143.81 0.06L143.81 0.06L143.81 0.06Q142.08 1.28 139.55 1.28L139.55 1.28L139.55 1.28Q137.02 1.28 135.42 0.10L135.42 0.10L135.42 0.10Q133.82-1.09 133.50-2.30L133.50-2.30L133.50-2.30Q131.90-0.64 129.31 0.32L129.31 0.32L129.31 0.32Q126.72 1.28 123.97 1.28L123.97 1.28L123.97 1.28Q121.22 1.28 118.82 0.38L118.82 0.38L118.82 0.38Q116.42-0.51 114.56-2.50L114.56-2.50L114.56-2.50Q110.46-6.85 110.46-15.10L110.46-15.10L110.46-15.10Q110.46-27.90 117.31-35.58L117.31-35.58L117.31-35.58Q124.35-43.52 136.83-43.52L136.83-43.52L136.83-43.52Q145.47-43.52 148.54-39.04L148.54-39.04L148.54-39.04Q149.50-37.63 149.50-35.94L149.50-35.94L149.50-35.94Q149.50-34.24 148.77-32.80L148.77-32.80L148.77-32.80Q148.03-31.36 146.88-30.21L146.88-30.21L146.88-30.21Q144.13-27.65 140.74-27.65L140.74-27.65L140.74-27.65Q139.39-27.65 138.11-28.10L138.11-28.10L138.11-28.10Q138.37-30.02 138.37-32.26L138.37-32.26L138.37-32.26Q138.37-34.50 138.21-35.52L138.21-35.52L138.21-35.52Q138.05-36.54 137.66-37.38L137.66-37.38L137.66-37.38Q136.83-39.10 135.01-39.10L135.01-39.10L135.01-39.10Q133.18-39.10 131.17-37.15L131.17-37.15L131.17-37.15Q129.15-35.20 127.55-32L127.55-32L127.55-32Q124.03-24.83 124.03-16.19L124.03-16.19L124.03-16.19Q124.03-12.22 125.57-9.41L125.57-9.41L125.57-9.41Q127.23-6.34 130.18-6.34L130.18-6.34L130.18-6.34Q131.20-6.34 132.13-6.85L132.13-6.85L132.13-6.85Q133.06-7.36 133.44-7.74L133.44-7.74L135.49-20.61ZM154.34-1.92L154.34-1.92L154.34-1.92Q152.83-3.58 152.16-6.21L152.16-6.21L152.16-6.21Q151.49-8.83 151.49-13.12L151.49-13.12L151.49-13.12Q151.49-17.41 152.96-21.31L152.96-21.31L152.96-21.31Q154.43-25.22 157.12-28.03L157.12-28.03L157.12-28.03Q162.62-33.92 171.71-33.92L171.71-33.92L171.71-33.92Q174.98-33.92 177.34-32.83L177.34-32.83L188.29-33.92L183.55-8.96L183.55-8.96Q183.36-8.19 183.36-6.78L183.36-6.78L183.36-6.78Q183.36-5.38 184.22-4.48L184.22-4.48L184.22-4.48Q185.09-3.58 186.37-3.46L186.37-3.46L186.37-3.46Q185.73-1.28 183.39 0L183.39 0L183.39 0Q181.06 1.28 178.43 1.28L178.43 1.28L178.43 1.28Q175.81 1.28 174.05 0.29L174.05 0.29L174.05 0.29Q172.29-0.70 171.78-2.37L171.78-2.37L171.78-2.37Q170.75-0.77 168.58 0.26L168.58 0.26L168.58 0.26Q166.40 1.28 163.49 1.28L163.49 1.28L163.49 1.28Q160.58 1.28 158.21 0.51L158.21 0.51L158.21 0.51Q155.84-0.26 154.34-1.92ZM167.84-27.90L167.84-27.90L167.84-27.90Q167.10-26.75 166.46-24.80L166.46-24.80L166.46-24.80Q165.82-22.85 164.77-17.63L164.77-17.63L164.77-17.63Q163.71-12.42 163.71-8.70L163.71-8.70L163.71-8.70Q163.71-4.99 164.29-3.90L164.29-3.90L164.29-3.90Q164.86-2.82 165.89-2.82L165.89-2.82L165.89-2.82Q167.94-2.82 169.44-4.77L169.44-4.77L169.44-4.77Q170.94-6.72 171.52-10.18L171.52-10.18L174.91-28.93L174.91-28.93Q173.57-30.08 172-30.08L172-30.08L172-30.08Q170.43-30.08 169.50-29.57L169.50-29.57L169.50-29.57Q168.58-29.06 167.84-27.90ZM207.04-3.52L207.04-3.52L207.04-3.52Q205.06 1.28 198.72 1.28L198.72 1.28L198.72 1.28Q195.52 1.28 193.47-0.96L193.47-0.96L193.47-0.96Q191.81-2.82 191.81-4.93L191.81-4.93L191.81-4.93Q191.81-9.73 194.05-20.22L194.05-20.22L198.72-44.80L211.71-46.08L205.50-13.70L205.50-13.70Q204.42-8.96 204.42-7.30L204.42-7.30L204.42-7.30Q204.42-3.65 207.04-3.52ZM227.78-3.52L227.78-3.52L227.78-3.52Q225.79 1.28 219.46 1.28L219.46 1.28L219.46 1.28Q216.26 1.28 214.21-0.96L214.21-0.96L214.21-0.96Q212.54-2.82 212.54-4.93L212.54-4.93L212.54-4.93Q212.54-9.73 214.78-20.22L214.78-20.22L219.46-44.80L232.45-46.08L226.24-13.70L226.24-13.70Q225.15-8.96 225.15-7.30L225.15-7.30L225.15-7.30Q225.15-3.65 227.78-3.52ZM259.14-10.82L259.14-10.82L259.14-10.82Q260.74-9.73 260.74-7.33L260.74-7.33L260.74-7.33Q260.74-4.93 259.52-3.39L259.52-3.39L259.52-3.39Q258.30-1.86 256.32-0.83L256.32-0.83L256.32-0.83Q252.22 1.28 247.81 1.28L247.81 1.28L247.81 1.28Q243.39 1.28 240.80 0.32L240.80 0.32L240.80 0.32Q238.21-0.64 236.48-2.43L236.48-2.43L236.48-2.43Q233.09-5.82 233.09-12.03L233.09-12.03L233.09-12.03Q233.09-21.70 238.34-27.58L238.34-27.58L238.34-27.58Q243.97-33.92 253.76-33.92L253.76-33.92L253.76-33.92Q259.84-33.92 262.85-31.36L262.85-31.36L262.85-31.36Q265.09-29.44 265.09-26.30L265.09-26.30L265.09-26.30Q265.09-15.04 245.63-15.04L245.63-15.04L245.63-15.04Q245.38-13.38 245.38-11.97L245.38-11.97L245.38-11.97Q245.38-9.02 246.69-7.90L246.69-7.90L246.69-7.90Q248-6.78 250.43-6.78L250.43-6.78L250.43-6.78Q252.86-6.78 255.46-7.90L255.46-7.90L255.46-7.90Q258.05-9.02 259.14-10.82ZM246.08-17.79L246.08-17.79L246.08-17.79Q250.62-17.79 253.25-20.61L253.25-20.61L253.25-20.61Q255.87-23.30 255.87-27.58L255.87-27.58L255.87-27.58Q255.87-29.06 255.33-29.86L255.33-29.86L255.33-29.86Q254.78-30.66 253.70-30.66L253.70-30.66L253.70-30.66Q252.61-30.66 251.68-30.24L251.68-30.24L251.68-30.24Q250.75-29.82 249.79-28.42L249.79-28.42L249.79-28.42Q247.42-25.22 246.08-17.79ZM287.30-17.98L287.30-17.98L287.30-17.98Q289.60-22.08 289.60-26.24L289.60-26.24L289.60-26.24Q289.60-28.99 287.62-28.99L287.62-28.99L287.62-28.99Q286.08-28.99 284.48-26.37L284.48-26.37L284.48-26.37Q282.82-23.74 282.30-20.35L282.30-20.35L278.98 0L265.73 1.28L272.26-32.64L282.82-33.92L281.66-27.46L281.66-27.46Q284.80-33.92 291.84-33.92L291.84-33.92L291.84-33.92Q295.55-33.92 297.57-32L297.57-32L297.57-32Q299.58-30.08 299.58-26.14L299.58-26.14L299.58-26.14Q299.58-22.21 296.99-19.71L296.99-19.71L296.99-19.71Q294.40-17.22 289.98-17.22L289.98-17.22L289.98-17.22Q288.06-17.22 287.30-17.98ZM320.96-7.23L320.96-7.23L320.96-7.23Q317.63-3.78 311.55-3.78L311.55-3.78L311.55-3.78Q303.94-3.78 302.34-9.34L302.34-9.34L302.34-9.34Q301.82-11.01 301.82-12.86L301.82-12.86L301.82-12.86Q301.82-14.72 302.21-16.64L302.21-16.64L305.22-32.64L318.21-33.92L314.69-15.30L314.69-15.30Q314.56-14.46 314.37-13.57L314.37-13.57L314.37-13.57Q314.18-12.67 314.18-11.74L314.18-11.74L314.18-11.74Q314.18-10.82 314.50-10.21L314.50-10.21L314.50-10.21Q314.82-9.60 315.26-9.22L315.26-9.22L315.26-9.22Q316.03-8.70 317.41-8.70L317.41-8.70L317.41-8.70Q318.78-8.70 319.97-10.37L319.97-10.37L319.97-10.37Q321.15-12.03 321.73-14.91L321.73-14.91L325.25-32.64L337.86-33.92L333.06-8.77L333.06-8.77Q330.69 3.52 325.82 8.38L325.82 8.38L325.82 8.38Q323.33 10.88 320.10 11.87L320.10 11.87L320.10 11.87Q316.86 12.86 312.70 12.86L312.70 12.86L312.70 12.86Q305.98 12.86 302.14 10.75L302.14 10.75L302.14 10.75Q298.30 8.64 298.30 5.12L298.30 5.12L298.30 5.12Q298.30 2.50 300.29 0.99L300.29 0.99L300.29 0.99Q302.27-0.51 305.34-0.51L305.34-0.51L305.34-0.51Q308.03-0.51 310.08 0.64L310.08 0.64L310.08 0.64Q311.30 1.34 311.87 2.24L311.87 2.24L311.87 2.24Q310.40 3.52 310.40 5.63L310.40 5.63L310.40 5.63Q310.40 8.45 312.96 8.45L312.96 8.45L312.96 8.45Q317.18 8.45 319.62-1.28L319.62-1.28L319.62-1.28Q320.32-4.16 320.96-7.23Z" fill="url(#editing-rainbow-gradient)"></path></g></g><style>text {
  font-size: 64px;
  font-family: Arial Black;
  dominant-baseline: central;
  text-anchor: middle;
}</style></svg>